<svg width="12" height="12" viewBox="0 0 12 12" fill="none" xmlns="http://www.w3.org/2000/svg">
<path fill-rule="evenodd" clip-rule="evenodd" d="M1.76222 7.43599C2.00468 7.16659 2.41963 7.14476 2.68902 7.38722L5.99993 10.3671L9.31108 7.3872C9.58048 7.14475 9.99542 7.1666 10.2379 7.436C10.4803 7.7054 10.4585 8.12034 10.1891 8.3628L6.43891 11.7378C6.31413 11.8501 6.15703 11.9062 5.99993 11.9062C5.84281 11.9063 5.68569 11.8501 5.5609 11.7378L1.81099 8.36278C1.5416 8.12032 1.51976 7.70538 1.76222 7.43599Z" fill="#474E5A"/>
<path fill-rule="evenodd" clip-rule="evenodd" d="M5.5609 0.262219C5.68569 0.149903 5.84281 0.0937465 5.99993 0.09375C6.15703 0.0937535 6.31413 0.149905 6.43891 0.262204L10.1891 3.6372C10.4585 3.87966 10.4803 4.2946 10.2379 4.564C9.99542 4.8334 9.58048 4.85525 9.31108 4.6128L5.99993 1.63289L2.68902 4.61278C2.41963 4.85524 2.00468 4.83341 1.76222 4.56401C1.51976 4.29462 1.5416 3.87968 1.81099 3.63722L5.5609 0.262219Z" fill="#474E5A"/>
</svg>
