<svg width="26" height="26" viewBox="0 0 26 26" fill="none" xmlns="http://www.w3.org/2000/svg">
<rect x="0.5" y="0.5" width="25" height="25" rx="4.5" fill="#2775CA"/>
<rect x="0.5" y="0.5" width="25" height="25" rx="4.5" stroke="white"/>
<path d="M10.8 21.2996C10.8 21.5996 10.6 21.6996 10.3 21.6996C6.6 20.4996 4 17.0996 4 13.0996C4 9.09965 6.6 5.69965 10.3 4.49965C10.6 4.39965 10.8 4.59965 10.8 4.89965V5.59965C10.8 5.79965 10.7 5.99965 10.5 6.09965C7.6 7.19965 5.6 9.89965 5.6 13.0996C5.6 16.2996 7.7 19.0996 10.5 20.0996C10.7 20.1996 10.8 20.3996 10.8 20.5996V21.2996Z" fill="white"/>
<path d="M13.8 18.7997C13.8 18.9997 13.6 19.1997 13.4 19.1997H12.6C12.4 19.1997 12.2 18.9997 12.2 18.7997V17.5997C10.6 17.3997 9.8 16.4997 9.5 15.1997C9.5 14.9997 9.6 14.7997 9.8 14.7997H10.7C10.9 14.7997 11 14.8997 11.1 15.0997C11.3 15.7997 11.7 16.3997 13 16.3997C14 16.3997 14.7 15.8997 14.7 15.0997C14.7 14.2997 14.3 13.9997 12.9 13.7997C10.8 13.4997 9.8 12.8997 9.8 11.1997C9.8 9.89966 10.8 8.89966 12.2 8.69966V7.49966C12.2 7.29966 12.4 7.09966 12.6 7.09966H13.4C13.6 7.09966 13.8 7.29966 13.8 7.49966V8.69966C15 8.89966 15.8 9.59966 16 10.6997C16 10.8997 15.9 11.0997 15.7 11.0997H14.9C14.7 11.0997 14.6 10.9997 14.5 10.7997C14.3 10.0997 13.8 9.79966 12.9 9.79966C11.9 9.79966 11.4 10.2997 11.4 10.9997C11.4 11.6997 11.7 12.0997 13.2 12.2997C15.3 12.5997 16.3 13.1997 16.3 14.8997C16.3 16.1997 15.3 17.2997 13.8 17.5997V18.7997Z" fill="white"/>
<path d="M15.7 21.6997C15.4 21.7997 15.2 21.5996 15.2 21.2996V20.5996C15.2 20.3997 15.3 20.1997 15.5 20.0997C18.4 18.9997 20.4 16.2996 20.4 13.0996C20.4 9.89965 18.3 7.09965 15.5 6.09965C15.3 5.99965 15.2 5.79965 15.2 5.59965V4.89965C15.2 4.59965 15.4 4.49965 15.7 4.49965C19.3 5.69965 22 9.09965 22 13.0996C22 17.0996 19.4 20.4997 15.7 21.6997Z" fill="white"/>
</svg>
