<svg width="34" height="14" viewBox="0 0 34 14" fill="none" xmlns="http://www.w3.org/2000/svg">
<g clip-path="url(#clip0_1389_52223)">
<path fill-rule="evenodd" clip-rule="evenodd" d="M34.0001 7.22389C34.0001 4.83455 32.829 2.94922 30.5907 2.94922C28.3429 2.94922 26.9829 4.83455 26.9829 7.20522C26.9829 10.0145 28.5885 11.4332 30.8929 11.4332C32.0168 11.4332 32.8668 11.1812 33.509 10.8265V8.95989C32.8668 9.27722 32.1301 9.47321 31.1951 9.47321C30.279 9.47321 29.4668 9.15589 29.3629 8.05455H33.9812C33.9812 7.93322 34.0001 7.44789 34.0001 7.22389ZM29.3346 6.33722C29.3346 5.28255 29.9862 4.84389 30.5812 4.84389C31.1574 4.84389 31.7712 5.28255 31.7712 6.33722H29.3346Z" fill="#6C7688"/>
<path fill-rule="evenodd" clip-rule="evenodd" d="M23.3373 2.94922C22.4118 2.94922 21.8168 3.37855 21.4862 3.67722L21.3634 3.09855H19.2856V13.9812L21.6468 13.4865L21.6562 10.8452C21.9962 11.0879 22.4968 11.4332 23.3279 11.4332C25.0184 11.4332 26.5579 10.0892 26.5579 7.13055C26.5484 4.42389 24.9901 2.94922 23.3373 2.94922ZM22.7706 9.37988C22.2134 9.37988 21.8829 9.18389 21.6562 8.94122L21.6468 5.47855C21.8923 5.20789 22.2323 5.02122 22.7706 5.02122C23.6301 5.02122 24.2251 5.97322 24.2251 7.19589C24.2251 8.44655 23.6395 9.37988 22.7706 9.37988Z" fill="#6C7688"/>
<path fill-rule="evenodd" clip-rule="evenodd" d="M16.0366 2.39867L18.4072 1.89467V0L16.0366 0.494667V2.39867Z" fill="#6C7688"/>
<path d="M18.4072 3.10742H16.0366V11.2741H18.4072V3.10742Z" fill="#6C7688"/>
<path fill-rule="evenodd" clip-rule="evenodd" d="M13.4963 3.79886L13.3452 3.10819H11.3052V11.2749H13.6663V5.74019C14.2235 5.02153 15.168 5.15219 15.4607 5.25486V3.10819C15.1585 2.99619 14.0535 2.79086 13.4963 3.79886Z" fill="#6C7688"/>
<path fill-rule="evenodd" clip-rule="evenodd" d="M8.77385 1.08203L6.46941 1.56736L6.45996 9.04336C6.45996 10.4247 7.50829 11.442 8.90607 11.442C9.68053 11.442 10.2472 11.302 10.5589 11.134V9.23936C10.2566 9.36069 8.7644 9.79002 8.7644 8.4087V5.09536H10.5589V3.10736H8.7644L8.77385 1.08203Z" fill="#6C7688"/>
<path fill-rule="evenodd" clip-rule="evenodd" d="M2.38944 5.47855C2.38944 5.11455 2.69167 4.97455 3.19222 4.97455C3.91 4.97455 4.81667 5.18922 5.53444 5.57189V3.37855C4.75056 3.07055 3.97611 2.94922 3.19222 2.94922C1.275 2.94922 0 3.93855 0 5.59055C0 8.16655 3.58889 7.75589 3.58889 8.86655C3.58889 9.29589 3.21111 9.43588 2.68222 9.43588C1.89833 9.43588 0.897222 9.11855 0.103889 8.68922V10.9105C0.982222 11.2839 1.87 11.4425 2.68222 11.4425C4.64667 11.4425 5.99722 10.4812 5.99722 8.81055C5.98778 6.02922 2.38944 6.52389 2.38944 5.47855Z" fill="#6C7688"/>
</g>
<defs>
<clipPath id="clip0_1389_52223">
<rect width="34" height="14" fill="white"/>
</clipPath>
</defs>
</svg>
