<svg width="24" height="24" viewBox="0 0 24 24" fill="none" xmlns="http://www.w3.org/2000/svg">
<rect width="24" height="24" rx="6" fill="#F5F6F8"/>
<path fill-rule="evenodd" clip-rule="evenodd" d="M11.6739 4.07459C11.8799 3.97514 12.1201 3.97514 12.3261 4.07459L19.4347 7.50637C19.7804 7.67321 20 8.02314 20 8.40692V10C20 10.5523 19.5523 11 19 11H17.5V15.7865L19.4472 16.7601C19.786 16.9295 20 17.2757 20 17.6545V19C20 19.5523 19.5523 20 19 20H5C4.44772 20 4 19.5523 4 19V17.6553C4 17.2749 4.21586 16.9274 4.5569 16.7588L6.52673 15.7852L6.50361 11H5C4.44772 11 4 10.5523 4 10V8.40692C4 8.02314 4.21964 7.67321 4.56525 7.50637L11.6739 4.07459ZM16 16.25V11H14.5V16.25C14.5 16.6642 14.1642 17 13.75 17C13.3357 17 13 16.6642 13 16.25V11H11V16.25C11 16.6642 10.6642 17 10.25 17C9.83579 17 9.5 16.6642 9.5 16.25V11H8.00363L8.02897 16.2464C8.03036 16.533 7.86826 16.7954 7.61131 16.9224L5.5 17.9659V18.5H18.5V17.9635L16.4146 16.9208C16.1605 16.7938 16 16.5341 16 16.25ZM18.5 9.5V8.72075L12 5.58282L5.5 8.72075V9.5H18.5Z" fill="#474E5A"/>
</svg>
