<svg width="26" height="26" viewBox="0 0 26 26" fill="none" xmlns="http://www.w3.org/2000/svg">
<rect x="0.5" y="0.5" width="25" height="25" rx="6.5" fill="#CD1309"/>
<rect x="0.5" y="0.5" width="25" height="25" rx="6.5" stroke="white"/>
<path d="M11.9664 9.43262H15.028L14.9813 10.2974H14.9158C14.3255 10.2974 14.1945 10.5136 13.9324 11.1629L12.0967 16.6441H10.9168L9.40873 12.6777L7.96613 16.6441H6.78624L4.81954 11.2357C4.62235 10.5864 4.22992 10.2981 3.77068 10.2981H3.63965V9.43262H6.91986V10.2988H6.65781C6.26408 10.2988 6.06754 10.3709 6.13305 10.5871C6.13305 10.6111 6.12577 10.6351 6.1185 10.6591C6.10394 10.7072 6.08938 10.7552 6.13305 10.8033C6.13305 10.8033 6.91986 12.8225 7.51014 14.7697H7.57565L8.88657 11.1636C8.82105 10.5864 8.62451 10.2981 8.09976 10.2981H7.64051V9.43262H11.1153V10.2981H10.5906C10.2624 10.2981 10.1313 10.3702 10.1313 10.5864C10.1313 10.6584 10.1313 10.7312 10.1968 10.8753C10.1968 10.8753 10.9836 12.9666 11.5739 14.7697H11.6394L12.8848 11.1636C12.9504 10.8753 12.9504 10.7312 12.9504 10.5864C12.9504 10.3709 12.8187 10.2981 12.4256 10.2981H11.9664V9.43262Z" fill="#FFFF00"/>
<path d="M21.6234 10.7291C21.82 11.1622 21.8855 11.6666 21.8855 12.2439L22.6068 12.2446V9.43262H15.9192V10.2253H16.3123C16.8364 10.2253 17.0336 10.2974 17.0336 10.8732V15.1293C17.0336 15.7058 16.8371 15.7786 16.3123 15.7786H15.9192V16.6427H19.9188V15.7786H19.1975C18.6072 15.7786 18.5417 15.7786 18.5417 15.1293V13.2535H19.0665C19.8533 13.2535 19.9843 13.5417 19.9843 14.7683H20.6401V11.1629H19.9843C19.9843 12.2439 19.8533 12.4601 19.0665 12.4601H18.5417V10.2974H20.1808C20.9021 10.2974 21.3614 10.368 21.6234 10.7291Z" fill="#FFFF00"/>
</svg>
