<svg width="24" height="24" viewBox="0 0 24 24" fill="none" xmlns="http://www.w3.org/2000/svg">
<mask id="mask0_74_14933" style="mask-type:luminance" maskUnits="userSpaceOnUse" x="-4" y="-4" width="32" height="32">
<path d="M27.9781 -3.97754H-3.97754V27.9781H27.9781V-3.97754Z" fill="white"/>
</mask>
<g mask="url(#mask0_74_14933)">
<mask id="mask1_74_14933" style="mask-type:luminance" maskUnits="userSpaceOnUse" x="1" y="1" width="22" height="22">
<path d="M22.7453 1.3418H1.25781V22.6375H22.7453V1.3418Z" fill="white"/>
</mask>
<g mask="url(#mask1_74_14933)">
<path d="M9.49921 9.09339V7.07029C9.49921 6.8999 9.56317 6.77208 9.71216 6.687L13.7798 4.34447C14.3334 4.02505 14.9936 3.87605 15.675 3.87605C18.2304 3.87605 19.849 5.85659 19.849 7.96478C19.849 8.11381 19.849 8.2842 19.8277 8.45458L15.6111 5.98424C15.3556 5.83524 15.0999 5.83524 14.8444 5.98424L9.49921 9.09339ZM18.9971 16.9728V12.1386C18.9971 11.8404 18.8692 11.6275 18.6138 11.4784L13.2686 8.36928L15.0148 7.36832C15.1638 7.28323 15.2917 7.28323 15.4407 7.36832L19.5082 9.71084C20.6796 10.3924 21.4674 11.8404 21.4674 13.2458C21.4674 14.8643 20.5092 16.355 18.9971 16.9727V16.9728ZM8.24278 12.7137L6.49654 11.6916C6.34754 11.6065 6.28359 11.4787 6.28359 11.3083V6.62326C6.28359 4.34469 8.02983 2.61962 10.3937 2.61962C11.2882 2.61962 12.1186 2.91783 12.8215 3.4502L8.62629 5.87799C8.37082 6.02698 8.243 6.23993 8.243 6.53818V12.7139L8.24278 12.7137ZM12.0015 14.8858L9.49921 13.4804V10.4991L12.0015 9.09361L14.5036 10.4991V13.4804L12.0015 14.8858ZM13.6093 21.3598C12.7148 21.3598 11.8845 21.0616 11.1815 20.5293L15.3767 18.1015C15.6322 17.9525 15.7601 17.7395 15.7601 17.4413V11.2655L17.5277 12.2877C17.6767 12.3727 17.7407 12.5006 17.7407 12.671V17.356C17.7407 19.6346 15.973 21.3596 13.6093 21.3596V21.3598ZM8.5622 16.6109L4.49461 14.2684C3.32325 13.5868 2.53542 12.1388 2.53542 10.7334C2.53542 9.09361 3.51503 7.62423 5.02693 7.0066V11.862C5.02693 12.1602 5.1548 12.3731 5.41027 12.5222L10.7343 15.6099L8.98805 16.6109C8.83906 16.696 8.71119 16.696 8.5622 16.6109ZM8.32808 20.1034C5.92165 20.1034 4.15406 18.2932 4.15406 16.0572C4.15406 15.8868 4.1754 15.7164 4.19658 15.546L8.39182 17.9738C8.64728 18.1228 8.90297 18.1228 9.15844 17.9738L14.5036 14.8861V16.9092C14.5036 17.0795 14.4397 17.2074 14.2907 17.2924L10.2231 19.635C9.66942 19.9544 9.00922 20.1034 8.32786 20.1034H8.32808ZM13.6093 22.6375C16.1861 22.6375 18.3369 20.8061 18.8269 18.3783C21.212 17.7607 22.7453 15.5246 22.7453 13.2461C22.7453 11.7553 22.1065 10.3073 20.9565 9.26377C21.0629 8.81653 21.1268 8.36928 21.1268 7.92226C21.1268 4.87702 18.6565 2.59823 15.8028 2.59823C15.228 2.59823 14.6742 2.68331 14.1205 2.87509C13.1621 1.93804 11.8417 1.3418 10.3937 1.3418C7.81692 1.3418 5.66618 3.17312 5.17619 5.6009C2.79111 6.21854 1.25781 8.45458 1.25781 10.7332C1.25781 12.2239 1.89661 13.6719 3.04662 14.7154C2.94014 15.1627 2.87623 15.6099 2.87623 16.057C2.87623 19.1022 5.34658 21.381 8.20021 21.381C8.7751 21.381 9.32882 21.2959 9.88254 21.1041C10.8408 22.0412 12.1611 22.6375 13.6093 22.6375Z" fill="white"/>
</g>
</g>
</svg>
