<svg width="32" height="32" viewBox="0 0 32 32" fill="none" xmlns="http://www.w3.org/2000/svg">
<rect width="32" height="32" rx="8" fill="#F5F6F8"/>
<rect x="6" y="6" width="20" height="20" rx="4" fill="#CD1309"/>
<path d="M15.1381 13.0273H17.6895L17.6506 13.748H17.596C17.1041 13.748 16.9949 13.9282 16.7765 14.4692L15.2468 19.0369H14.2635L13.0068 15.7316L11.8046 19.0369H10.8214L9.18246 14.5299C9.01814 13.9888 8.69111 13.7486 8.30841 13.7486H8.19922V13.0273H10.9327V13.7492H10.7144C10.3862 13.7492 10.2225 13.8092 10.2771 13.9894C10.2771 14.0094 10.271 14.0294 10.2649 14.0495C10.2528 14.0895 10.2407 14.1295 10.2771 14.1696C10.2771 14.1696 10.9327 15.8523 11.4246 17.4749H11.4792L12.5717 14.4698C12.5171 13.9888 12.3533 13.7486 11.916 13.7486H11.5333V13.0273H14.4289V13.7486H13.9917C13.7181 13.7486 13.6089 13.8086 13.6089 13.9888C13.6089 14.0489 13.6089 14.1095 13.6635 14.2296C13.6635 14.2296 14.3192 15.9724 14.8111 17.4749H14.8657L15.9035 14.4698C15.9581 14.2296 15.9581 14.1095 15.9581 13.9888C15.9581 13.8092 15.8484 13.7486 15.5208 13.7486H15.1381V13.0273Z" fill="#FFFF00"/>
<path d="M23.1857 14.1077C23.3495 14.4686 23.4041 14.889 23.4041 15.37L24.0052 15.3706V13.0273H18.4322V13.6879H18.7598C19.1965 13.6879 19.3608 13.748 19.3608 14.2278V17.7746C19.3608 18.255 19.1971 18.3157 18.7598 18.3157H18.4322V19.0357H21.7652V18.3157H21.1641C20.6722 18.3157 20.6176 18.3157 20.6176 17.7746V16.2114H21.0549C21.7106 16.2114 21.8198 16.4516 21.8198 17.4737H22.3662V14.4692H21.8198C21.8198 15.37 21.7106 15.5502 21.0549 15.5502H20.6176V13.748H21.9835C22.5846 13.748 22.9673 13.8069 23.1857 14.1077Z" fill="#FFFF00"/>
</svg>
