<svg width="32" height="32" viewBox="0 0 32 32" fill="none" xmlns="http://www.w3.org/2000/svg">
<g clip-path="url(#clip0_99_15814)">
<g clip-path="url(#clip1_99_15814)">
<g clip-path="url(#clip2_99_15814)">
<rect width="24" height="24" fill="#533AFD"/>
<path fill-rule="evenodd" clip-rule="evenodd" d="M6 17.998L18 15.4532V5.99805L6 8.57263V17.998Z" fill="white"/>
</g>
</g>
<rect x="13" y="17" width="18" height="14" rx="3" fill="#2775CA"/>
<rect x="13" y="17" width="18" height="14" rx="3" stroke="white" stroke-width="2"/>
<rect width="12" height="12" transform="translate(16 18)" fill="#2775CA"/>
<path d="M20.9 28.1503C20.9 28.3003 20.8 28.3503 20.65 28.3503C18.8 27.7503 17.5 26.0503 17.5 24.0503C17.5 22.0503 18.8 20.3503 20.65 19.7503C20.8 19.7003 20.9 19.8003 20.9 19.9503V20.3003C20.9 20.4003 20.85 20.5003 20.75 20.5503C19.3 21.1003 18.3 22.4503 18.3 24.0503C18.3 25.6503 19.35 27.0503 20.75 27.5503C20.85 27.6003 20.9 27.7003 20.9 27.8003V28.1503Z" fill="white"/>
<path d="M22.4 26.9003C22.4 27.0003 22.3 27.1003 22.2 27.1003H21.8C21.7 27.1003 21.6 27.0003 21.6 26.9003V26.3003C20.8 26.2003 20.4 25.7503 20.25 25.1003C20.25 25.0003 20.3 24.9003 20.4 24.9003H20.85C20.95 24.9003 21 24.9503 21.05 25.0503C21.15 25.4003 21.35 25.7003 22 25.7003C22.5 25.7003 22.85 25.4503 22.85 25.0503C22.85 24.6503 22.65 24.5003 21.95 24.4003C20.9 24.2503 20.4 23.9503 20.4 23.1003C20.4 22.4503 20.9 21.9503 21.6 21.8503V21.2503C21.6 21.1503 21.7 21.0503 21.8 21.0503H22.2C22.3 21.0503 22.4 21.1503 22.4 21.2503V21.8503C23 21.9503 23.4 22.3003 23.5 22.8503C23.5 22.9503 23.45 23.0503 23.35 23.0503H22.95C22.85 23.0503 22.8 23.0003 22.75 22.9003C22.65 22.5503 22.4 22.4003 21.95 22.4003C21.45 22.4003 21.2 22.6503 21.2 23.0003C21.2 23.3503 21.35 23.5503 22.1 23.6503C23.15 23.8003 23.65 24.1003 23.65 24.9503C23.65 25.6003 23.15 26.1503 22.4 26.3003V26.9003Z" fill="white"/>
<path d="M23.35 28.3503C23.2 28.4003 23.1 28.3003 23.1 28.1503V27.8003C23.1 27.7003 23.15 27.6003 23.25 27.5503C24.7 27.0003 25.7 25.6503 25.7 24.0503C25.7 22.4503 24.65 21.0503 23.25 20.5503C23.15 20.5003 23.1 20.4003 23.1 20.3003V19.9503C23.1 19.8003 23.2 19.7503 23.35 19.7503C25.15 20.3503 26.5 22.0503 26.5 24.0503C26.5 26.0503 25.2 27.7503 23.35 28.3503Z" fill="white"/>
</g>
<defs>
<clipPath id="clip0_99_15814">
<rect width="32" height="32" fill="white"/>
</clipPath>
<clipPath id="clip1_99_15814">
<path d="M0 4C0 1.79086 1.79086 0 4 0H20C22.2091 0 24 1.79086 24 4V20C24 22.2091 22.2091 24 20 24H4C1.79086 24 0 22.2091 0 20V4Z" fill="white"/>
</clipPath>
<clipPath id="clip2_99_15814">
<rect width="24" height="24" fill="white"/>
</clipPath>
</defs>
</svg>
