<svg width="32" height="32" viewBox="0 0 32 32" fill="none" xmlns="http://www.w3.org/2000/svg">
<rect y="4" width="32" height="24" rx="2" fill="#2775CA"/>
<rect width="24" height="24" transform="translate(4 4)" fill="#2775CA"/>
<path d="M13.8 24.2996C13.8 24.5996 13.6 24.6996 13.3 24.6996C9.6 23.4996 7 20.0996 7 16.0996C7 12.0996 9.6 8.69965 13.3 7.49965C13.6 7.39965 13.8 7.59965 13.8 7.89965V8.59965C13.8 8.79965 13.7 8.99965 13.5 9.09965C10.6 10.1996 8.6 12.8996 8.6 16.0996C8.6 19.2996 10.7 22.0996 13.5 23.0996C13.7 23.1996 13.8 23.3996 13.8 23.5996V24.2996Z" fill="white"/>
<path d="M16.8 21.7997C16.8 21.9997 16.6 22.1997 16.4 22.1997H15.6C15.4 22.1997 15.2 21.9997 15.2 21.7997V20.5997C13.6 20.3997 12.8 19.4997 12.5 18.1997C12.5 17.9997 12.6 17.7997 12.8 17.7997H13.7C13.9 17.7997 14 17.8997 14.1 18.0997C14.3 18.7997 14.7 19.3997 16 19.3997C17 19.3997 17.7 18.8997 17.7 18.0997C17.7 17.2997 17.3 16.9997 15.9 16.7997C13.8 16.4997 12.8 15.8997 12.8 14.1997C12.8 12.8997 13.8 11.8997 15.2 11.6997V10.4997C15.2 10.2997 15.4 10.0997 15.6 10.0997H16.4C16.6 10.0997 16.8 10.2997 16.8 10.4997V11.6997C18 11.8997 18.8 12.5997 19 13.6997C19 13.8997 18.9 14.0997 18.7 14.0997H17.9C17.7 14.0997 17.6 13.9997 17.5 13.7997C17.3 13.0997 16.8 12.7997 15.9 12.7997C14.9 12.7997 14.4 13.2997 14.4 13.9997C14.4 14.6997 14.7 15.0997 16.2 15.2997C18.3 15.5997 19.3 16.1997 19.3 17.8997C19.3 19.1997 18.3 20.2997 16.8 20.5997V21.7997Z" fill="white"/>
<path d="M18.7 24.6997C18.4 24.7997 18.2 24.5996 18.2 24.2996V23.5996C18.2 23.3997 18.3 23.1997 18.5 23.0997C21.4 21.9997 23.4 19.2996 23.4 16.0996C23.4 12.8996 21.3 10.0996 18.5 9.09965C18.3 8.99965 18.2 8.79965 18.2 8.59965V7.89965C18.2 7.59965 18.4 7.49965 18.7 7.49965C22.3 8.69965 25 12.0996 25 16.0996C25 20.0996 22.4 23.4997 18.7 24.6997Z" fill="white"/>
</svg>
