<svg width="32" height="32" viewBox="0 0 32 32" fill="none" xmlns="http://www.w3.org/2000/svg">
<rect width="32" height="32" rx="8" fill="#F5F6F8"/>
<path fill-rule="evenodd" clip-rule="evenodd" d="M15.6739 8.07459C15.8799 7.97514 16.1201 7.97514 16.3261 8.07459L23.4347 11.5064C23.7804 11.6732 24 12.0231 24 12.4069V14C24 14.5523 23.5523 15 23 15H21.5V19.7865L23.4472 20.7601C23.786 20.9295 24 21.2757 24 21.6545V23C24 23.5523 23.5523 24 23 24H9C8.44772 24 8 23.5523 8 23V21.6553C8 21.2749 8.21586 20.9274 8.5569 20.7588L10.5267 19.7852L10.5036 15H9C8.44772 15 8 14.5523 8 14V12.4069C8 12.0231 8.21964 11.6732 8.56525 11.5064L15.6739 8.07459ZM20 20.25V15H18.5V20.25C18.5 20.6642 18.1642 21 17.75 21C17.3357 21 17 20.6642 17 20.25V15H15V20.25C15 20.6642 14.6642 21 14.25 21C13.8358 21 13.5 20.6642 13.5 20.25V15H12.0036L12.029 20.2464C12.0304 20.533 11.8683 20.7954 11.6113 20.9224L9.5 21.9659V22.5H22.5V21.9635L20.4146 20.9208C20.1605 20.7938 20 20.5341 20 20.25ZM22.5 13.5V12.7208L16 9.58282L9.5 12.7208V13.5H22.5Z" fill="#474E5A"/>
</svg>
